{
	"asset":{
		"generator":"Khronos glTF Blender I/O v3.6.27",
		"version":"2.0"
	},
	"extensionsUsed":[
		"KHR_materials_specular",
		"KHR_materials_ior"
	],
	"scene":0,
	"scenes":[
		{
			"name":"Scene",
			"nodes":[
				0
			]
		}
	],
	"nodes":[
		{
			"mesh":0,
			"name":"Carta",
			"scale":[
				30,
				30,
				31.25
			],
			"translation":[
				0.07158279418945312,
				0.030877888202667236,
				-0.4043707251548767
			]
		}
	],
	"materials":[
		{
			"doubleSided":true,
			"name":"SinyBorder",
			"pbrMetallicRoughness":{
				"baseColorFactor":[
					0,
					0,
					0,
					1
				],
				"metallicFactor":0,
				"roughnessFactor":0.5
			}
		},
		{
			"doubleSided":true,
			"extensions":{
				"KHR_materials_specular":{
					"specularColorFactor":[
						1.1856785245328425,
						1.1856785245328425,
						1.1856785245328425
					]
				},
				"KHR_materials_ior":{
					"ior":1.4500000476837158
				}
			},
			"name":"Texturas",
			"pbrMetallicRoughness":{
				"baseColorTexture":{
					"index":0
				},
				"metallicFactor":0,
				"roughnessFactor":0.5
			}
		},
		{
			"doubleSided":true,
			"name":"BlackCardParts",
			"pbrMetallicRoughness":{
				"baseColorFactor":[
					0.003642068477347493,
					0.003642068477347493,
					0.003642068477347493,
					1
				],
				"metallicFactor":0,
				"roughnessFactor":0.5
			}
		},
		{
			"doubleSided":true,
			"name":"Textura Atras",
			"pbrMetallicRoughness":{
				"baseColorTexture":{
					"index":1
				},
				"metallicFactor":0,
				"roughnessFactor":0.5
			}
		}
	],
	"meshes":[
		{
			"name":"Plane",
			"primitives":[
				{
					"attributes":{
						"POSITION":0,
						"NORMAL":1,
						"TEXCOORD_0":2
					},
					"indices":3,
					"material":0
				},
				{
					"attributes":{
						"POSITION":4,
						"NORMAL":5,
						"TEXCOORD_0":6
					},
					"indices":7,
					"material":1
				},
				{
					"attributes":{
						"POSITION":8,
						"NORMAL":9,
						"TEXCOORD_0":10
					},
					"indices":11,
					"material":2
				},
				{
					"attributes":{
						"POSITION":12,
						"NORMAL":13,
						"TEXCOORD_0":14
					},
					"indices":15,
					"material":3
				}
			]
		}
	],
	"textures":[
		{
			"sampler":0,
			"source":0
		},
		{
			"sampler":0,
			"source":1
		}
	],
	"images":[
		{
			"mimeType":"image/png",
			"name":"carta__invisible1",
			"uri":"carta__invisible1.png"
		},
		{
			"mimeType":"image/png",
			"name":"cartas",
			"uri":"cartas.png"
		}
	],
	"accessors":[
		{
			"bufferView":0,
			"componentType":5126,
			"count":88,
			"max":[
				0.007719011511653662,
				0.9671972990036011,
				0.6305913925170898
			],
			"min":[
				0.007719011511653662,
				-0.9671981334686279,
				-0.6305913925170898
			],
			"type":"VEC3"
		},
		{
			"bufferView":1,
			"componentType":5126,
			"count":88,
			"type":"VEC3"
		},
		{
			"bufferView":2,
			"componentType":5126,
			"count":88,
			"type":"VEC2"
		},
		{
			"bufferView":3,
			"componentType":5123,
			"count":264,
			"type":"SCALAR"
		},
		{
			"bufferView":4,
			"componentType":5126,
			"count":44,
			"max":[
				0.01932677812874317,
				0.9418251514434814,
				0.6052188873291016
			],
			"min":[
				0.01932677812874317,
				-0.9418259859085083,
				-0.6052188873291016
			],
			"type":"VEC3"
		},
		{
			"bufferView":5,
			"componentType":5126,
			"count":44,
			"type":"VEC3"
		},
		{
			"bufferView":6,
			"componentType":5126,
			"count":44,
			"type":"VEC2"
		},
		{
			"bufferView":7,
			"componentType":5123,
			"count":126,
			"type":"SCALAR"
		},
		{
			"bufferView":8,
			"componentType":5126,
			"count":704,
			"max":[
				0.01932677812874317,
				0.9999995231628418,
				0.6633939743041992
			],
			"min":[
				-0.036709219217300415,
				-1.0000003576278687,
				-0.6633939743041992
			],
			"type":"VEC3"
		},
		{
			"bufferView":9,
			"componentType":5126,
			"count":704,
			"type":"VEC3"
		},
		{
			"bufferView":10,
			"componentType":5126,
			"count":704,
			"type":"VEC2"
		},
		{
			"bufferView":11,
			"componentType":5123,
			"count":1320,
			"type":"SCALAR"
		},
		{
			"bufferView":12,
			"componentType":5126,
			"count":44,
			"max":[
				-0.036709219217300415,
				0.9720056056976318,
				0.6353998184204102
			],
			"min":[
				-0.036709219217300415,
				-0.9720064401626587,
				-0.6353998184204102
			],
			"type":"VEC3"
		},
		{
			"bufferView":13,
			"componentType":5126,
			"count":44,
			"type":"VEC3"
		},
		{
			"bufferView":14,
			"componentType":5126,
			"count":44,
			"type":"VEC2"
		},
		{
			"bufferView":15,
			"componentType":5123,
			"count":126,
			"type":"SCALAR"
		}
	],
	"bufferViews":[
		{
			"buffer":0,
			"byteLength":1056,
			"byteOffset":0,
			"target":34962
		},
		{
			"buffer":0,
			"byteLength":1056,
			"byteOffset":1056,
			"target":34962
		},
		{
			"buffer":0,
			"byteLength":704,
			"byteOffset":2112,
			"target":34962
		},
		{
			"buffer":0,
			"byteLength":528,
			"byteOffset":2816,
			"target":34963
		},
		{
			"buffer":0,
			"byteLength":528,
			"byteOffset":3344,
			"target":34962
		},
		{
			"buffer":0,
			"byteLength":528,
			"byteOffset":3872,
			"target":34962
		},
		{
			"buffer":0,
			"byteLength":352,
			"byteOffset":4400,
			"target":34962
		},
		{
			"buffer":0,
			"byteLength":252,
			"byteOffset":4752,
			"target":34963
		},
		{
			"buffer":0,
			"byteLength":8448,
			"byteOffset":5004,
			"target":34962
		},
		{
			"buffer":0,
			"byteLength":8448,
			"byteOffset":13452,
			"target":34962
		},
		{
			"buffer":0,
			"byteLength":5632,
			"byteOffset":21900,
			"target":34962
		},
		{
			"buffer":0,
			"byteLength":2640,
			"byteOffset":27532,
			"target":34963
		},
		{
			"buffer":0,
			"byteLength":528,
			"byteOffset":30172,
			"target":34962
		},
		{
			"buffer":0,
			"byteLength":528,
			"byteOffset":30700,
			"target":34962
		},
		{
			"buffer":0,
			"byteLength":352,
			"byteOffset":31228,
			"target":34962
		},
		{
			"buffer":0,
			"byteLength":252,
			"byteOffset":31580,
			"target":34963
		}
	],
	"samplers":[
		{
			"magFilter":9729,
			"minFilter":9987
		}
	],
	"buffers":[
		{
			"byteLength":31832,
			"uri":"scene.bin"
		}
	]
}
